<svg id="Livello_1" data-name="Livello 1" xmlns="http://www.w3.org/2000/svg" viewBox="0 0 181.38 115.63"><defs><style>.cls-1{fill:#9cc766;}.cls-2{fill:#76934c;}.cls-3{fill:#77934c;}.cls-4{fill:#fcc94e;}.cls-5{fill:#f39519;}.cls-6{fill:#fce7e7;}.cls-7{fill:#f29215;}.cls-8{fill:#fcca4f;}.cls-9{fill:#fee3b0;}.cls-10{fill:#f0a337;}.cls-11{fill:#e38b20;}.cls-12{fill:#773319;}.cls-13{fill:#bb9f4d;}.cls-14{fill:#c62f30;}</style></defs><path class="cls-1" d="M166.51,429.28c.5.47.94,1.24,1.51,1.36,6.2,1.25,12.41,2.41,18.62,3.57a10.12,10.12,0,0,0,1.87-.15c-4.5-8.43.57-16.66-.3-25a41.41,41.41,0,0,1-.6-4.8,5.51,5.51,0,0,1,1-3.52c.41-.42,2.3.14,3.22.73A46.45,46.45,0,0,1,211.2,426.3c.27.8.68,1.55,1.3,2.95,1.58-8.74,6.53-14.67,12-20.51,2.9-3.1,4.58-7.32,6.93-11a22.06,22.06,0,0,1,2.86-3c.93,1,2.25,1.9,2.72,3.11,3.59,9.2,5.41,18.65,3.42,28.54a2.36,2.36,0,0,0,.05,1c7.25-1.75,14.43-3.65,21.69-5.16,2.68-.56,6.48-1.33,7.5,1.95.49,1.56-2.19,4.21-3.61,6.23a41.12,41.12,0,0,1-3.39,3.85c-7.85-.29-12.83,4.51-17.4,9.92-1.59,1.88-2.41,5.13-4.29,5.83s-4.77-.89-7.2-1.49c-.57-2-1.14-4.07-1.7-6.1l-.76-1.31-2.24-2.48c-1.88-2.59-4.16-5.37-7.44-4.85-2.42.39-4.53,2.7-6.78,4.16l-1.35.24c-.71,1.7-1.41,3.41-2.12,5.11l-.09,9.71.55.81,0,.09.89,4.23-14.44.09c-2.38-4.07-5.38-7.62-10.1-8.79-3.2-.78-6.61-.73-9.93-1.05-4.43-3.59-8.9-7.13-13.25-10.83a27.68,27.68,0,0,1-3.22-4Z" transform="translate(-126.62 -347.15)"/><path class="cls-2" d="M233.76,448.51c2.43.6,5.25,2.22,7.2,1.49s2.7-3.95,4.29-5.83c4.57-5.41,9.55-10.21,17.4-9.92,5.32,2.43,8.87.43,12.75-3.69,9.82-10.43,27.54-3.16,31.44,10.12,2.11,7.2,1,14.54-.61,21.94h-79.7l3.49-3.7c.74-1.77,1.48-3.53,2.21-5.3Zm27.63-8.61c-1.24,1.75-2.43,2.77-2.62,4-.11.63,1.68,2.32,2.28,2.17a4.71,4.71,0,0,0,3-2.45C264.28,443,262.72,441.66,261.39,439.9Zm34.7-5.06c-1.2,1.35-2.46,2.17-2.37,2.8a3.63,3.63,0,0,0,2,2.42c.44.19,2.09-1.05,2.14-1.72C297.91,437.44,297,436.45,296.09,434.84Z" transform="translate(-126.62 -347.15)"/><path class="cls-3" d="M178.21,448.37c3.32.32,6.73.27,9.93,1.05,4.72,1.17,7.72,4.72,10.1,8.79l.44,4.53h-11c-6.72,0-13.44,0-20.16,0-3.42,0-4.56-1.37-3.33-4.58a9.62,9.62,0,0,1,3.42-4.72C170.93,451.41,174.65,450,178.21,448.37Z" transform="translate(-126.62 -347.15)"/><path class="cls-4" d="M232.23,453.62c-.73,1.77-1.47,3.53-2.21,5.3-5,2-10.07,1.54-15.19.83h.07l-.79-.8.06,0-.84-.77H213l-.32-.12c-.3-1.41-.6-2.82-.89-4.23C218.62,455.4,225.44,455.67,232.23,453.62Z" transform="translate(-126.62 -347.15)"/><path class="cls-5" d="M214.83,459.75c5.12.71,10.22,1.16,15.19-.83l-3.49,3.7c-2.59,0-5.23.38-7.73-.07C217.36,462.29,216.15,460.73,214.83,459.75Z" transform="translate(-126.62 -347.15)"/><path class="cls-6" d="M127.71,351.62a.65.65,0,0,1-.22-.47l1.81-1,0,0Z" transform="translate(-126.62 -347.15)"/><path class="cls-5" d="M213.33,458.23l.84.77Z" transform="translate(-126.62 -347.15)"/><path class="cls-5" d="M214.11,459l.79.8Z" transform="translate(-126.62 -347.15)"/><path class="cls-7" d="M232.23,453.62c-6.79,2.05-13.61,1.78-20.44.27l0-.09-.55-.81.09-9.71.8.93c2.72,3.35,6.44,4.16,10.49,4.09l4.16-1,3.52,2.15c.22-1.31.38-2.63.68-3.92.26-1.07.68-2.11,1-3.16.56,2,1.13,4.07,1.7,6.1Z" transform="translate(-126.62 -347.15)"/><path class="cls-8" d="M214.84,437.93c2.25-1.46,4.36-3.77,6.78-4.16,3.28-.52,5.56,2.26,7.44,4.85-2,4-5.77,2.94-9.08,3.25C217.71,441.29,215.16,441.06,214.84,437.93Z" transform="translate(-126.62 -347.15)"/><path class="cls-9" d="M232.06,442.41c-.36,1-.78,2.09-1,3.16-.3,1.29-.46,2.61-.68,3.92l-3.52-2.15-4.16,1-2.43-2.22,0-2,11.1-3Z" transform="translate(-126.62 -347.15)"/><path class="cls-10" d="M220.2,444.12l0,2-8.06-1.87-.8-.93c.71-1.7,1.41-3.41,2.12-5.11-.73,3.62,2,4.29,4.44,5.18l.73.12,1.53.13A2.26,2.26,0,0,0,220.2,444.12Z" transform="translate(-126.62 -347.15)"/><path class="cls-11" d="M220.2,444.12a2.34,2.34,0,0,1,0-.53l-.21-1.72c3.31-.31,7.09.73,9.08-3.25l2.24,2.48Z" transform="translate(-126.62 -347.15)"/><path class="cls-12" d="M220,441.87l.21,1.72-1.53-.12-.73-.12c-2.47-.89-5.17-1.56-4.44-5.18l1.35-.24C215.16,441.06,217.71,441.29,220,441.87Z" transform="translate(-126.62 -347.15)"/><path class="cls-4" d="M211.28,453l.55.81Z" transform="translate(-126.62 -347.15)"/><path class="cls-13" d="M261.39,439.9c1.33,1.76,2.89,3.05,2.65,3.67a4.71,4.71,0,0,1-3,2.45c-.6.15-2.39-1.54-2.28-2.17C259,442.67,260.15,441.65,261.39,439.9Z" transform="translate(-126.62 -347.15)"/><path class="cls-13" d="M296.09,434.84c.87,1.61,1.82,2.6,1.75,3.5,0,.67-1.7,1.91-2.14,1.72a3.63,3.63,0,0,1-2-2.42C293.63,437,294.89,436.19,296.09,434.84Z" transform="translate(-126.62 -347.15)"/><path class="cls-6" d="M127.06,347.15l1.44.27-1.37,1.92C127.11,348.61,127.08,347.88,127.06,347.15Z" transform="translate(-126.62 -347.15)"/><path class="cls-6" d="M127,349.48l-.09.91c-.11-.28-.21-.56-.31-.85A1.39,1.39,0,0,1,127,349.48Z" transform="translate(-126.62 -347.15)"/><path class="cls-14" d="M212.17,444.21l8.06,1.87,2.43,2.22C218.61,448.37,214.89,447.56,212.17,444.21Z" transform="translate(-126.62 -347.15)"/><path class="cls-11" d="M217.93,443.35l.73.12Z" transform="translate(-126.62 -347.15)"/></svg>