<svg id="Layer_1" data-name="Layer 1" xmlns="http://www.w3.org/2000/svg" viewBox="0 0 296.51 697.05"><defs><style>.cls-1{fill:#1d1d1b;}</style></defs><path class="cls-1" d="M506.93,230.36c1.58-1.11,3.15-2.28,4.67-3.41,1.08-.8,2.16-1.6,3.25-2.39A21.36,21.36,0,0,0,523,210.08a21.67,21.67,0,0,0-3.94-16.37c-2.32-2.94-5.52-4.07-9.78-3.43a115.2,115.2,0,0,0-18,4.61l-.51.17c-.65.23-1.55.54-1.85.29-.08-.07-.35-.42-.11-1.83,2.86-17,.79-33.53-1.61-47.42-4.66-26.94-16.19-48.87-34.28-65.2-6.31-5.7-8.71-11.35-8.56-20.17.23-13.19-4.36-23.3-13.66-30-4.89-3.56-10-4.9-14.86-3.86S407,31.07,404.06,36.2a132.66,132.66,0,0,0-8.21,17.26c-1.3,3.22-2.81,4.62-5.23,4.81-16.8,1.35-33.64,6.47-51.47,15.65-4.08,2.11-7.46,2.6-10.63,1.54-7-2.33-14.1-2.18-20.76-1.68-7.51.58-13.23,3.11-16.55,7.32-2.68,3.39-3.68,7.8-2.88,12.75.83,5.15,3.57,9.75,8.14,13.66,2.25,1.92,2.62,3.58,1.42,6.33-2.63,6-5.13,12.18-7.55,18.16-7.35,18.12-14.94,36.86-26.83,53.18-2.5,3.43-3.39,6.61-2.66,9.47.77,3,3.35,5.59,7.64,7.62,2.07,1,4.15,1.9,6.23,2.83,2.35,1,4.77,2.13,7.13,3.25,4.14,2,5.31,5.07,3.48,9.17-.86,1.93-1.74,3.85-2.62,5.76-1.14,2.49-2.32,5.06-3.44,7.62-3.43,7.88-6.36,15.68-4.46,24.5,3.73,17.32,16.61,26.5,27.41,32.56,6.68,3.76,14,6.2,21.11,8.57l1.54.51-.09.65c-3.83,1.15-7.66,2.32-11.48,3.48-9.59,2.93-19.51,5.95-29.32,8.68-5.09,1.41-10.54,3.55-10.72,11.08-.05,2.47-1.23,4.62-3.59,6.56-3.13,2.58-6.83,5.61-10.6,8.55-24,18.74-34.19,39.17-32,64.3,1.59,18.78,8,32,19.61,40.35,6.79,4.9,10.08,10.72,11,19.46.21,2.07.55,4.15.87,6.16l.23,1.43c3.87,24.55,11.63,42.69,24.42,57.1,11.77,13.25,14.36,28.75,15.34,42.16,1,14,2.72,28.85,8.13,42.83,3.79,9.79,7.77,18.94,12.14,27.95-17.32,3-29.58,11.67-37.44,26.37-4.23,7.92-4,15.4.76,22.24a35.37,35.37,0,0,0,23.46,15.35c9.2,1.66,18.58,1.14,27.66.64l1.36-.08a74.88,74.88,0,0,0,32.36-9.76,40.25,40.25,0,0,0,3.53-2.29,24.62,24.62,0,0,1,5.91-3.36c2.67,14.56,5.52,19.27,14.89,24.85,4.56,2.72,9.68,4.47,14.63,6.17a98.3,98.3,0,0,0,31.91,5.61,82.57,82.57,0,0,0,35.91-8.17c16.27-7.75,23.8-18.84,23-33.88a204.55,204.55,0,0,1,.08-23.39c.85-13.6,2-28.12,3.66-45.69.36-3.79.68-7.58,1-11.38,1-12.14,2.1-24.69,4.25-36.83,3.85-21.7,4.66-41.48,2.5-60.46-1.47-13-2.49-28.29,1.14-43.79A176.12,176.12,0,0,0,513.73,417c-.05-4.25-.06-8.51-.07-12.76,0-5.14,0-10.45-.11-15.67-.08-4.43,1.26-7.8,4.1-10.31s3.15-5.27,2.89-8.76c-1.45-19.15-2.63-37-3.61-54.49-1.37-24.5-4.54-42.9-10.25-59.64-1-2.86-.7-4.92.95-7.1,5.23-6.91,5.2-7.4-.89-13.27-1.11-1.07-1.6-1.88-1.55-2.54S505.79,231.16,506.93,230.36ZM298.07,102.47c-3.66-4.24-5.11-8.85-4.1-13s4.49-7.57,9.74-9.64a43.7,43.7,0,0,1,10.67-2.43l3.09.59c2.67.51,5.44,1,8.2,1.62,1.05.23,1.73.59,1.82,1,0,.18,0,.68-1.14,1.6A193.62,193.62,0,0,0,304,102.94a3.91,3.91,0,0,1-2.72,1.58h0C300.29,104.51,299.25,103.84,298.07,102.47Zm3.63,178.46c-8.59-5-14.77-10.92-18.91-18.11a24.84,24.84,0,0,1-1.32-23.09c1.41-3.34,2.92-6.7,4.39-9.95,1.69-3.74,3.43-7.62,5-11.48,2.92-7.1,1.78-9.11-4.3-13.31-3.59-2.48-7.62-3.9-11.52-5.26-1.18-.41-2.35-.83-3.51-1.27-3.22-1.21-5.06-2.68-5.49-4.35-.36-1.42.28-3.1,1.91-5,10.49-12.22,16-27,21.41-41.27,1.92-5.09,3.9-10.35,6.07-15.42,16-37.25,44.44-59.3,84.58-65.54,1.08-.17,2.19-.39,3.32-.61a37.15,37.15,0,0,1,6.92-1,8.81,8.81,0,0,1,3.87.76c2.14,1.05,2.21,3.94,2.29,7a20.41,20.41,0,0,0,.63,5.49c.31,1,.59,2,.87,3,1.17,4.15,2.38,8.45,5.91,12.33a.54.54,0,0,0,.55.15.53.53,0,0,0,.39-.43c.64-3.46-.3-6.14-1.2-8.73a30.08,30.08,0,0,1-.94-3.09c-4.2-18.91-2-32.53,7.06-44.16,2.51-3.22,5.34-5,8.38-5.29s6.2,1,9.32,3.68c12.29,10.79,12.52,25.45,11.35,37a44.55,44.55,0,0,1-2.55,9.85c-1.31,3.86-2.67,7.86-2.89,12.35a.54.54,0,0,0,.27.5.58.58,0,0,0,.57,0c3.87-2.46,5.25-6.14,6.47-9.4l.45-1.2c.74-1.92,1.52-3,2.38-3.17s2.05.38,3.72,1.84c12.46,11,21.69,25.07,28.23,43.05,9.52,26.19,9.11,52.6,7.25,77.23-.77,10.1-4.73,13.4-13.32,17-24.54,10.19-48.32,25.19-72.71,45.88-4.32,3.66-8.85,7.23-13.22,10.68s-8.81,7-13.1,10.58c-8,6.76-16.22,8.85-26.7,6.76C330.42,292.29,315.21,288.81,301.7,280.93Zm-20,34.86a3.21,3.21,0,0,1,1.32-.4c10.48-.36,20.17-4,29.55-7.58,3-1.13,6-2.29,9.1-3.33l.45.51-4,3.68q-5.78,5.25-11.58,10.47c-1.25,1.12-2.83,1.24-5.13.39-8.59-3.15-16-2.57-22.74,1.79C277.89,318.46,279.34,317,281.73,315.79Zm-38,115.42c-8-9.28-11.76-21.13-11.47-36.21v0c-.31-19.13,7.16-34.61,22.84-47.33,3.39-2.76,6.92-5.46,10.34-8.07,6.24-4.79,12.69-9.73,18.58-15.18a9.12,9.12,0,0,1,6.47-2.57,17.88,17.88,0,0,1,6.34,1.38c.94.36,1.5.77,1.55,1.13.08.6-1.16,1.51-1.89,2.05l-.56.42c-4.38,3.45-8.88,6.9-13.24,10.25-4.15,3.19-8.45,6.49-12.64,9.78a50,50,0,0,0-7.7,7c-4.81,5.71-4.45,12,1,17.75a34.38,34.38,0,0,0,7.05,5.27,43.42,43.42,0,0,1,5.34,3.7c13.23,11.26,13.73,26.61,12.68,38.73-1,11.5-7.76,19.38-19,22.21C259.86,443.93,251.94,440.74,243.71,431.21ZM359.65,380c-.42.2-.84.4-1.21.61a268,268,0,0,1-59.51,24.7c-3.05.87-3.56.34-4.65-2.5a159.61,159.61,0,0,0-12.22-24.46c-1-1.69-1.46-2.46-.3-4.08,3-4.26,6-8.66,8.89-12.91,1.55-2.28,3.09-4.57,4.65-6.84a5.16,5.16,0,0,1,4.25-2.31l5.94,1.75c4.35,1.28,8.84,2.6,13.29,3.82,13.46,3.68,26.32,9.54,38.77,15.21l.83.38c1.86.84,4,1.8,4.17,3.55C362.72,378.42,361.52,379.11,359.65,380ZM386,367.92c9.05-9.16,18.81-11.51,31.64-7.62,21.84,6.63,35.45,18.83,41.6,37.31,1.11,3.34.26,5.33-1.69,7.82C441.31,426.22,419.1,441,387.69,452c-28.29,9.91-58.25,14.23-91.58,13.18-13.69-.43-24.46-5.78-32-15.9,2.18-.84,4.31-1.46,6.37-2.06a51.79,51.79,0,0,0,7.56-2.6c7.16-3.29,11.6-8.5,13.56-15.93.32-1.2.74-2.43,1.15-3.61a27.82,27.82,0,0,0,1.74-7c.4-5.66,3.54-7.55,8.48-8.78a253.69,253.69,0,0,0,41.86-13.94C361.33,388.14,375.2,378.88,386,367.92ZM285.51,356.75c-3.06,4.71-6,9.16-8.82,13.68-1.37,2.17-2.79,2.47-5.24,1.08a14.19,14.19,0,0,1-5.52-4.74l-.25-.4c-1-1.63-1.84-3-1.5-4.31.27-1,1.34-2.07,3.25-3.14a59,59,0,0,1,21.34-7.18ZM382.61,587c-.1,1.23-.21,2.5-.21,3.7,0,11.48-.61,23.15-1.16,34.43-.69,13.77-1.39,28-1.1,42.08.11,5.5-2.94,10.53-9.34,15.36a66.74,66.74,0,0,1-37.6,13.49c-2.17.11-4.37.3-6.5.48-6.2.54-12.61,1.09-18.94-.31-5.85-1.29-11.5-4.05-17.77-8.69-5.9-4.36-7-13.91-2.55-21.76,6.38-11.2,20.05-21.59,36.82-21.59a41.91,41.91,0,0,1,9.09,1c.66.15,1.32.34,2,.54,2.2.66,4.71,1.4,7.81.53a.53.53,0,0,0,.38-.37.54.54,0,0,0-.12-.52c-3.17-3.45-6.69-4.58-10.64-5.61-5.56-1.45-9.43-4.86-11.8-10.43-11.46-26.84-17.22-51.42-17.6-75.14,0-.47-.06-1-.11-1.5-.2-2-.24-3.33.95-3.93s2.34.53,3.58,1.55c.35.29.69.57,1,.81,17.36,12.66,37.69,21,62.16,25.37a19.88,19.88,0,0,0,4,.14c3-.08,5.8-.17,7.05,2.43C383.09,581.23,382.85,584.16,382.61,587Zm120.29-68.8c-.2,16.12-2.2,32.35-4.13,48.06-.41,3.33-.82,6.65-1.21,10-3.43,29-6.73,60-6.28,91,.09,6.18-.27,12.29-.68,18.51-.68,10.35-7.73,16.19-14.54,20.54C459.15,717,441,719.93,420.55,715.08c-8.75-2.08-16-4-23.11-7.44-8-3.94-13.08-10.2-13.89-17.16s2.44-13.63,9.1-19.12c7.44-6.13,15.39-9.2,23.76-9.2a40.62,40.62,0,0,1,16.46,3.73c1.32.58,2.65,1.14,4,1.68a1.19,1.19,0,0,0,.8-.05l.83-.21a.54.54,0,0,0,.38-.31.56.56,0,0,0,0-.49c-1.48-2.7-3-5.36-4.48-8-3.28-5.8-6.37-11.29-9.16-17.06-15.07-31.18-19.2-62.83-12.29-94.08,6.54-29.54,22.09-54,46.24-72.63,5.77-4.45,12.47-6.34,18.87-5.34,6.59,1,12.58,5.07,16.87,11.34C502.58,492,503.06,504.87,502.9,518.19ZM388.37,603.57c.55-5.9,1.44-11.87,2.3-17.65l.42-2.81c.29-2,2.07-3.9,4.64-5.08a9.74,9.74,0,0,1,4-1,5.36,5.36,0,0,1,2.85.73c.59.37.64.94.67,1.82v.15c.95,24.44,8.23,49.27,22.27,75.89a2.69,2.69,0,0,1,.22.87v.06a21.8,21.8,0,0,1-6.07-.29,24.57,24.57,0,0,0-5.9-.33,47.9,47.9,0,0,0-24.43,9.2c-1.39,1-1.94,1.13-2.15,1s-.47-.41-.51-2.1C386.18,640.56,386.7,621.33,388.37,603.57Zm117-154.8-.23,1.7c-1.14,8.37-2.32,17-5.7,25.06l-2.74-2.07c-2.19-1.68-4.26-3.26-6.41-4.69-10.23-6.81-20.74-6.69-32.11.36-14.9,9.22-24.87,22.68-34.6,36.83-10.86,15.78-17.16,34.73-19.26,57.95-.48,5.32-2.52,7.35-7.52,7.51-36.37,1.18-67.59-10.17-92.76-33.68-23.46-21.91-37-46.25-41.54-74.41-.05-.31-.11-.62-.17-.93a6.63,6.63,0,0,1,0-3.77c5.78,3.66,11.12,6.85,17.29,9,12.94,4.53,26.16,4.56,38.53,3.91a248.62,248.62,0,0,0,77.72-16.42c13.85-5.42,28.44-11.52,41.12-21.29,2.41-1.85,5.07-2,8.12-.39a28.9,28.9,0,0,0,11.1,3.28c6.39.51,11.46-.8,15.05-3.88s5.53-7.66,6-13.8c1-13.25,6.7-21.25,17.94-25.2a29.21,29.21,0,0,0,5.86-3.13c1.05-.66,2.14-1.36,3.24-2,.58-.31,1.68-.9,2.13-.63.17.1.48.47.51,1.8v.46C507.48,409.57,508,429.39,505.36,448.77ZM502.54,226c-2.27,1.89-3.33,3.57-3.35,5.28s.95,3.28,3,5c1.77,1.54,2.59,2.72,2.64,3.85s-.61,2.34-2.16,4c-2.8,2.94-3.63,7-2.4,11.78,3.49,13.48,6.44,25.58,9,37,1.76,7.75,2,15.8,2.26,23.59.16,5.08.33,10.34.91,15.49.67,6,1.14,12.12,1.6,18,.36,4.79.74,9.74,1.23,14.6a10.31,10.31,0,0,1-2.67,8.56,60,60,0,0,1-20.87,15.52c11.82-29.25,22.64-62.31,10.86-97.56a.54.54,0,0,0-1.06.13c-.42,6.07-.34,12.25-.26,18.23.15,11.91,2.49,24.23-1.25,36.24a268.84,268.84,0,0,1-21.29,50.37,6.85,6.85,0,0,1-.68-1.92,5.13,5.13,0,0,0-2.4-3.76.55.55,0,0,0-.78.28,27.14,27.14,0,0,0-1.52,9.07c0,.81-.08,1.61-.15,2.41l-.06.79c-.49,6.31-1,12.84-3.08,18.93a14.34,14.34,0,0,1-9.58,9,15.17,15.17,0,0,1-13.59-2.29c-.43-.33-.67-.63-.69-.88s.35-.68.67-1l.32-.33c4.35-4.92,8.84-10,14.4-14,.49.36.56.88.63,1.69a2.83,2.83,0,0,0,2,2.95.55.55,0,0,0,.6-.19c2.48-3.23,1.94-6.91,1.41-10.47-2.89-19.77-12.6-34.9-28.06-43.75-13.09-7.5-29.92-10.3-47.39-7.87a4,4,0,0,0-3.86,3.15c-1.12,3.38-4.4,6.82-7,6.18-2-.49-1.51-4.06-1.11-6.92.07-.48.13-.94.18-1.36.81-7,6.53-13.45,13.59-15.34,8.77-2.35,17.18-.65,25,1.53.55.15,1.09.35,1.65.55a10.43,10.43,0,0,0,6.62.74.54.54,0,0,0,.4-.41.53.53,0,0,0-.18-.54c-4.89-4.15-10.71-6.43-18.31-7.18-2-.2-3.15-.59-3.44-1.18-.37-.76.45-2.26,1.31-3.63,8.34-13.28,16.7-26.85,24.78-40L436,281.3l.38-.58a8.23,8.23,0,0,0,1.66-5.23.54.54,0,0,0-.31-.49.56.56,0,0,0-.57.06,48.51,48.51,0,0,0-7.94,7.62c-7.29,8.8-13.13,18.74-18.77,28.34-2.43,4.13-4.93,8.39-7.52,12.51-4,6.31-7.93,11.68-16.16,13.36-8.62,1.75-14.28,12.33-12.87,24.08.08.7.19,1.4.3,2.11a34.81,34.81,0,0,1,.44,3.8c.08,2.4-.21,3.76-.91,4.25s-2,.32-4.14-.53c-6-2.42-12-5.17-17.85-7.83l-3.54-1.62c-16.25-7.39-31.48-11.74-46.57-13.3a66.71,66.71,0,0,0-27,2.34,11.93,11.93,0,0,1,4.29-3.84,23.76,23.76,0,0,0,2.08-1.41q3.65-2.85,7.32-5.68c10.34-8,22.42-17.56,33.59-27.95a32,32,0,0,0,5.31-6.35c4-6.19,6.38-7.24,13.56-5.89a4.52,4.52,0,0,1,3.74,3.43c.66,2.14,1.61,3.41,2.9,3.85s3.08,0,5.34-1.56c19.38-13.3,36.82-25.41,54-38.94,24-19,50.81-34.22,82-46.64.15-.06.31-.1.47-.15a3.21,3.21,0,0,0,1.19-.55,6.57,6.57,0,0,1,2.33-1c1.58-.44,3.56-1,3.06-3.12a1.9,1.9,0,0,0-.89-1.3c-.89-.48-2.1,0-3.26.38a7.48,7.48,0,0,1-2,.55c-2,.06-2.55-.3-2.65-1.92-.34-5.3,1-8.5,4.39-10.36a53.08,53.08,0,0,1,16.63-6.1c2.92-.51,5,.49,6.22,3C517,204.4,517,215,510.47,219.25a38.63,38.63,0,0,0-5.16,4.27C504.41,224.35,503.48,225.21,502.54,226Zm-116.17-8.86a6.53,6.53,0,0,1,3.14.33,8.43,8.43,0,0,0,2.31.42h0a7.39,7.39,0,0,1,1.28.18c1.23.25,3.09.61,3.61-1.26.74-2.67-2.25-3.55-3.89-4a44.78,44.78,0,0,0-22.41-.54c-5.61,1.22-9.23,3.76-10.46,7.36s.07,7.82,3.75,12.23a97.81,97.81,0,0,1,8,11.65c.95,1.53,1.9,3.07,2.88,4.58,2.31,3.58,1.85,6.78-1.4,9.53-5.4,4.56-11,9.28-17.4,12.79a45.82,45.82,0,0,1-64.28-25.08l.05,0a17.33,17.33,0,0,1,2,.71c14,6.47,19.83-.36,25.54-9.24,2.5-3.89,3.06-7.61,1.59-10.47s-4.95-4.65-9.71-4.88c-2.57-.13-5.1-.1-8-.07l-3.28,0a58.46,58.46,0,0,1,7.3-6.95,48.39,48.39,0,0,0,7.05-6.8c2-2.53,3.85-5.57,2.33-9-3.85-8.8-10.7-15.29-21.55-20.45a2.81,2.81,0,0,0-3.66.78c-1.23,1.75.2,2.93,1.06,3.64l.25.22a11.69,11.69,0,0,0,2.43,1.48c5.79,2.88,10.68,7.53,15.39,14.64,1.54,2.33,1.8,3.82.84,4.83-.76.81-1.36.45-2.64-.65a10.78,10.78,0,0,0-1.07-.85c-1.88-1.23-4.72-3.1-7.12-.61a3.77,3.77,0,0,0-1.18,2.85,6.29,6.29,0,0,0,2.44,4.11,3.52,3.52,0,0,1,1.5,2.34c0,.93-.77,1.85-1.95,3-2.14,2-4.23,4.13-6.25,6.18-1.39,1.42-2.78,2.84-4.2,4.23a17.6,17.6,0,0,0-5.13,17.45c4.06,17.89,15.7,30.4,33.66,36.19a53.33,53.33,0,0,0,16.39,2.69c14.22,0,27.69-6.29,40.23-18.82C385.46,252.14,397,237,386.37,217.13ZM370,230.8c-1.57-1.71-3.2-3.47-4.67-5.28-1.8-2.23-1.66-4,.51-6.44a10.1,10.1,0,0,1,7.57-3.32c.3,0,.61,0,.92,0a11,11,0,0,1,8.41,5.13,24.29,24.29,0,0,1,3.81,12.49,5.35,5.35,0,0,1-1.31-2.58,10,10,0,0,0-.57-1.55,7.61,7.61,0,0,1-.44-1.28c-.37-1.31-.94-3.27-3.18-2.68a2.7,2.7,0,0,0-1.74,1.2c-.57,1-.21,2.28.12,3.41.11.39.21.77.28,1.12.46,2.53,1,5.1,1.48,7.58.28,1.38.56,2.77.83,4.16.36,1.84.71,3.59-1.09,5.47C379.35,240.9,374.6,235.77,370,230.8Zm-41-84.19c-.45-1.17-.75-1.94-.38-2.63s1.23-1,2.51-1.26c11.13-2.44,20.74,1.79,27.88,5.74,1.82,1,2.81,3.26,2.11,4.82a2.72,2.72,0,0,1-2.69,1.66,8.57,8.57,0,0,1-2.76-.59c-6-2.12-11.23-3.43-17.07-2.92h-.14a8.87,8.87,0,0,0-2.34.06c-2.31.25-5.17.56-6.7-3.77Q329.17,147.11,329,146.61ZM356.65,182a52.76,52.76,0,0,1,7.75,5.12c1.88,1.48,3.53,2.09,5.91.6a.55.55,0,0,1,.83.56l0,.14c-.74,3.86-1.51,7.84-6.28,7.84a10.52,10.52,0,0,1-1.51-.12c-6.13-.89-12.78-5.58-12.51-10.5.11-1.95.78-3.37,1.89-4C353.43,181.23,354.7,181,356.65,182Zm-74.24-1.18a.53.53,0,0,1,0,.5,87.44,87.44,0,0,1-7.29,14.82,2.24,2.24,0,0,1-1.76.82h-.1a1.46,1.46,0,0,1-1.1-.53,2.2,2.2,0,0,1-.29-1.77,38,38,0,0,1,6-15.18,2.24,2.24,0,0,1,1.51-.95,2.2,2.2,0,0,1,1.7.49,4.17,4.17,0,0,1,1,1.3C282.21,180.49,282.3,180.66,282.41,180.82Zm88.08,101.62a.56.56,0,0,1-.08.64,19.24,19.24,0,0,1-14.77,6.48,27.42,27.42,0,0,1-4-.3.52.52,0,0,1-.45-.43.55.55,0,0,1,.24-.58c5.38-3.3,11.49-4.6,17.4-5.85l1-.22A.54.54,0,0,1,370.49,282.44Z" transform="translate(-226.74 -26.48)"/></svg>