<?xml version="1.0" encoding="utf-8"?>
<!-- Generator: Adobe Illustrator 26.0.0, SVG Export Plug-In . SVG Version: 6.00 Build 0)  -->
<svg version="1.1" id="Livello_1" xmlns="http://www.w3.org/2000/svg" xmlns:xlink="http://www.w3.org/1999/xlink" x="0px" y="0px"
	 viewBox="0 0 226.1 189.8" style="enable-background:new 0 0 226.1 189.8;" xml:space="preserve">
<style type="text/css">
	.st0{fill:#EE7DAC;}
	.st1{fill:#562C38;}
	.st2{fill:#56303B;}
	.st3{fill:#4C2832;}
	.st4{fill:#4B2933;}
	.st5{fill:#512C37;}
	.st6{fill:#4D2B34;}
	.st7{fill:#49252F;}
	.st8{fill:#52323B;}
	.st9{fill:#4E2C36;}
	.st10{fill:#502834;}
	.st11{fill:#5E2E3D;}
	.st12{fill:#633141;}
	.st13{fill:#FFFFFF;}
	.st14{fill:#ED7CAB;}
	.st15{fill:#E375A1;}
	.st16{fill:#E476A3;}
</style>
<path class="st0" d="M98.8,25.6l3.3,0.1c-1.3,5.2-2.8,10.3-3.6,15.6c-0.3,1.7,1.3,3.6,2.1,5.4c1.6-1.2,4-2.1,4.6-3.7
	c2.2-5.3,3.7-10.9,5.5-16.4l14.8,3.3c-2.9,6.5-6.1,12.8-8.5,19.5c-0.6,1.8,1.1,4.4,1.7,6.7c2.2-1,5.2-1.3,6.5-3
	c3.5-4.8,6.3-10.2,9.5-15.2c1.1-1.5,2.4-2.8,3.7-4.1l1.4,0.9c-0.8,2.2-1.9,4.4-2.1,6.6c-0.3,2.8-0.7,6.4,0.7,8.2
	c2.7,3.3,5.1-0.2,7.3-2c2.1-1.6,4.3-3,6.5-4.5c-2.1,7.2-4.9,13.2-7.7,19.3c-1.1,2.4-1.6,5.2,1.5,6.1c1.3,0.4,3.4-1.4,4.9-2.4
	c1.5-1,2.9-2.2,4.2-3.4c-2.3,9.4-1.2,11.3,7.7,14.1c-0.2,4.4,2.3,4.5,5.2,3.5c1.9-0.8,3.7-1.8,5.4-2.9c-0.8,2.4-4.5,4.8-1,7.1
	c1.6,1.1,4.6,0.1,7,0l2.4,9.8c0.3,0.8,0.6,1.6,0.9,2.4c0.4,12.2-0.4,24.3-4.5,35.9c-5.6-0.6-11.1-0.1-15.3,3.9
	c-1.5,1.5-2.5,4.8-1.9,6.7c0.5,1.5,3.8,2.2,5.9,2.9c0.8,0.3,2-0.5,3-0.8l-4.7,8.7l-10,6.5c-3-2.7-3.5-4.6-1.4-7.7
	c4.6-6.9,3.4-16.1-2.8-21.7c-6.2-5.6-15.4-6.5-22.5-2.1c-6.7,4.1-9.7,12.3-7.1,19.8c2.6,7.8,10.7,13.2,19.1,11.8
	c4.1-0.6,5.4,0.9,6.3,4.5c-4.2,2.2-8.3,4.5-12.5,6.7c-3,1.5-4.5,3.8-3.9,7.2c-11.9,5.6-24.6,7.2-37.6,6.4
	c-17.5-1.2-33.9-5.9-47.6-17.7c3.7,0,7.4,0.1,11.1-0.1c14.8-0.9,29.5-1.9,42.7-10c4.4-2.7,6.1-5.9,6.1-10.6
	c-0.1-7.2-0.1-14.5,0-21.7c0-4.8-1.4-8.6-6.2-10.5c-4.4-1.8-6.3-4.9-5.7-9.8c0.4-3.9,0.3-7.8-0.1-11.6c-0.7-6.7-10.8-12.8-19.1-10
	c3.4,1.3,5.7,1.7,7.5,2.9c2.8,2.1,5.5,4.4,8,6.8c-2.7,2.2-5.4,4.5-8.2,6.7c-0.1,0.1-0.4,0-0.5,0.1c-11.5,3.9-23.4,4.7-35.5,4.1
	c-2.1,0-4.2,0.1-6.2,0.4c8.1,4.4,16.8,3.5,25.1,2.4c8.6-1.1,16.9-3.8,25.5-5.8c0,2.3-0.4,5.4,0.1,8.3c0.9,6.1-2.8,8.9-7.5,10.5
	C62,126,42,126.1,22.2,119.3c-3.2-1.3-5.6-3.8-6.9-7c-1.2-3.8-0.3-8.2-0.3-12.4l11.4,3.9l0.9-1.7c-0.9-0.9-1.9-1.7-3-2.4
	c-1.4-0.7-3.2-0.8-4.3-1.7c-1.8-1.5-4.5-3.4-4.6-5.2s2.6-4,4.5-5.2c2.7-1.7,5.8-2.8,8.8-4.1c1,2.9,2.1,5.9,3.1,9
	c7,1.1,7.3,0.9,7.2-6.2c-0.1-3.8-0.7-7.6-1.1-11.4c-0.1-0.6-0.4-1.3-0.2-1.6c4-4.8,0-7.5-3.4-11.8c-1.6,3.4-4.5,7-3.7,8.2
	c2.5,4-0.5,7.4-0.1,10.9c0.1,0.6-1.1,1.4-1.8,2.2c-1-0.4-2.1-1.2-2.9-1c-3.4,1.2-6.8,2.6-10.2,4C17,75.4,23.1,67.2,29,58.8
	c0.9-1.3,1.7-2.6,2.6-4c3.3-3.1,6.6-6.1,9.9-9.2c0.7-0.6,1.4-1.1,2.1-1.7l1.1-1.6l-0.4-0.1l6.6-3.2c5,3.6,10.2,3.3,13.1-1
	c1.4-2.1,2-4.7,2.9-7.1l1.8-0.2c0.2,4.2,0,8.5,0.7,12.6c0.3,1.7,2.4,3.2,3.6,4.7c1.2-1.6,3.1-3.1,3.4-4.8c0.8-5.2,0.9-10.5,1.3-15.8
	L80,27c1.2,3.8,1.8,7.9,3.8,11.3c1.1,2,4.8,4.4,6.4,3.9c2.5-0.8,4.4-3.9,6.3-6.2c0.3-0.4-0.5-1.7-0.9-2.6c-0.8,0.4-1.9,0.7-2.4,1.4
	c-1.1,1.5-2.1,3.1-3,4.8l-2-0.4V25.9l5.8-0.2C95.7,29.7,97.2,27.5,98.8,25.6z M67,73.2c-0.7,4.4-1.8,8.8-2,13.2
	c-0.3,7.1,1,7.9,9.3,5.3c-1-6-2-12.2-3-18.4c3.6-3.7,2.8-7.1-2.9-10.5C66.7,66.1,61.7,68.8,67,73.2z M47.7,82.2c1,11.9,2,13,8.9,9.1
	v-9l7.1-1l-0.1-1.7c-1.6-0.3-3.8-0.1-4.8-1.1c-1.5-1.4-3.7-4.4-3.2-5.5c2.4-4.9-0.2-7.4-3.2-10.3c-5.2,4.4-5.7,6.8-3.2,10.3
	c1.1,8.1-6.8,4-9.6,8.7L47.7,82.2z"/>
<path class="st1" d="M28.7,83.6c-2.9,1.3-6.1,2.4-8.8,4.1c-1.9,1.2-4.5,3.4-4.5,5.2s2.7,3.7,4.6,5.2c1.1,0.9,3,1,4.3,1.7
	c1.1,0.7,2.1,1.5,3,2.4l-0.9,1.7L15,99.9c0,4.2-0.9,8.6,0.3,12.4c1.2,3.2,3.7,5.7,6.9,7c19.8,6.8,39.8,6.6,59.7,0.3
	c4.7-1.5,8.5-4.3,7.5-10.5c-0.4-2.9-0.1-6-0.1-8.3c-8.5,2-16.9,4.7-25.5,5.8c-8.3,1-17,2-25.1-2.4c2.1-0.2,4.2-0.4,6.2-0.4
	c12.1,0.6,24-0.2,35.5-4.1c0.2-0.1,0.4,0,0.5-0.1c2.7-2.2,5.4-4.5,8.2-6.7c-2.5-2.4-5.2-4.6-8-6.8c-1.8-1.2-4.1-1.6-7.5-2.9
	c8.3-2.7,18.5,3.4,19.1,10c0.5,3.9,0.5,7.8,0.1,11.6c-0.6,5,1.3,8,5.7,9.8c4.8,2,6.3,5.7,6.2,10.5c-0.1,7.2-0.1,14.5,0,21.7
	c0,4.8-1.7,8-6.1,10.6c-13.2,8.1-27.9,9.1-42.7,10c-3.7,0.2-7.4,0.1-11.1,0.1c-7.6-1.1-15.5-1.5-22.9-3.5c-6.5-1.7-12.7-4.9-18.7-8
	c-1.7-0.9-3.1-4-3.2-6.1c-0.4-9.1,0-18.3-0.2-27.4c-0.1-5.4,4-7.2,7.6-9c3.3-1.7,4.6-3.7,4.2-7.3c-0.3-3.1,0.2-6.4-0.1-9.5
	c-0.6-4.1,0.9-8.2,4-10.9c3.4-1.4,6.7-2.8,10.2-4c0.8-0.2,1.9,0.6,2.9,1C28.7,83.2,28.7,83.4,28.7,83.6z M15.1,119.9l-0.9-1.2
	c-1.2-1-3.2-3-3.5-2.8c-2.8,2.2-7.2,4.5-7.4,7.2c-1.1,10.6-2,17.8,13.3,14c0.7-0.1,1.4-0.2,2.1-0.3c5.5-0.6,11,1.4,14.9,5.4
	c3.8,3.7,8.6,4.1,13.2,1.7c8.4-4.4,16.6-4.9,25.2-0.6c4,2,8.7,1.8,11.8-1.5c4.9-5.2,9.8-9.7,17.5-7.4c1.3-13.2,0.1-15.4-8.7-18.5
	C79.9,129.6,42.6,131.6,15.1,119.9L15.1,119.9z M38.2,163.3c17.1,2.5,34.6,1,51-4.6c11.5-3.9,13.9-9,11.9-20.6
	c-5.1-2.5-9.1-0.6-12.6,3.3c-6,6.5-11,7.8-19.3,4.1c-6.6-2.9-12.9-3-19.3,0.4c-7.4,4-14,2.9-20.4-2.6c-2.2-1.8-5.6-2.2-8.5-3.2
	l-18,1C1.8,147,2.7,152.3,9,155.8C18.1,160.9,28,162.6,38.2,163.3L38.2,163.3z"/>
<path class="st2" d="M130.2,179c-0.7-3.5,0.8-5.7,3.9-7.2c4.2-2.1,8.3-4.4,12.5-6.7c-0.9-3.6-2.2-5.1-6.3-4.5
	c-8.4,1.3-16.5-4.1-19.1-11.8c-2.6-7.4,0.4-15.7,7.1-19.8c7.2-4.4,16.3-3.5,22.5,2.1c6.1,5.6,7.3,14.8,2.8,21.7
	c-2.1,3.1-1.5,5,1.4,7.7l10-6.5c2.9-1.5,5.8-3.2,8.8-4.4c2.4-1,4.6-2.1,3-4.7c-0.6-1-3.7-0.5-5.6-0.7l-1.4,1.2v-0.1
	c-1,0.3-2.1,1-3,0.8c-2.2-0.7-5.4-1.4-5.9-2.9c-0.6-1.9,0.4-5.2,1.9-6.7c4.2-4,9.7-4.5,15.3-3.9c5.6,2.6,9.8,6.2,10.1,12.9
	c0.3,7-3.6,11-9.3,14c-5.9,3.1-11.7,6.4-18,9.9c2.7,4.5,5.1,8.7,7.6,12.9c1.5,2.5,2.2,5-0.8,6.9s-4.8,0-6.5-2.4
	c-2.8-4.1-5.8-8.2-8.9-12.6c-4.1,2.4-8,4.9-12.2,7.1C136.4,183.2,132.8,183.3,130.2,179z M141.2,146.3c1.3,0.3,2.8,1,4,0.8
	c2.8-0.6,6.1-1.1,8-2.9c1.2-1.1,0.2-4.5,0.2-6.9c-3.5,4-6.5,7.6-12.1,6.9l-1.1-2c4.9-0.8,7.3-3.8,6.9-8.7s-4-4.3-7.5-4.8
	c2.4,4.4,5.2,8.4,0.6,12.7c-0.3-1.1-0.4-2.4-1.1-3.2c-2.5-2.6-5-5.5-8.1-7.3c-1-0.6-3.9,2.2-5.9,3.5c5.4,1.1,10.1,1.5,12.3,8.4
	c-5.4-4-10.2-3.8-14,0.1c-1.1,1.2-0.2,4.4-0.2,6.7l1.6,0c2.3-4.2,5.1-7.7,11.2-6c-5,2.8-7.6,6.7-5.9,11.8c0.5,1.6,3.9,2.2,6,3.3
	c-3.2-8.5-3-10.2,1.1-13.4l1.8,4.6l10.2,13.5l1.6-0.2c-0.2-3.7-0.5-7.3-0.7-11.3C143.4,151.2,142.1,150.5,141.2,146.3L141.2,146.3z
	 M154.7,172.7c3.1,4.6,5.9,9.1,8.9,13.4c0.5,0.7,2,0.7,3,1.1c0.1-1.1,0.7-2.4,0.3-3.1c-1.9-3.5-4.2-6.8-6-10.4
	C159.4,170.6,157.6,170.8,154.7,172.7L154.7,172.7z M177.2,151.1c-6.4,0.4-7.5,4.9-8.4,10.2C175,160.3,177.2,156.8,177.2,151.1
	L177.2,151.1z M155.2,167.8c7.4-0.5,8.5-2,7.3-10.4L155.2,167.8z M170.6,136.7l-2.5-2l-5.7,6.9c1,0.8,2,1.6,3,2.4
	C167.2,141.6,168.9,139.1,170.6,136.7L170.6,136.7z M150.6,165.8c-6.1,1.1-6,5.9-7.1,10.3C149.5,174.8,150.8,170.9,150.6,165.8
	L150.6,165.8z M179.3,142.8c2.1-6.5,2.1-6.5-2.6-7.7l-2.9,5.1L179.3,142.8z"/>
<path class="st3" d="M155.1,62.6c-1.3,1.2-2.7,2.3-4.2,3.4c-1.6,1-3.6,2.8-4.9,2.4c-3.1-0.9-2.6-3.7-1.5-6.1
	c2.8-6.1,5.6-12.1,7.7-19.3c-2.2,1.5-4.4,2.9-6.5,4.5c-2.3,1.8-4.6,5.3-7.3,2c-1.5-1.8-1-5.4-0.7-8.2c0.2-2.2,1.4-4.4,2.1-6.6
	l-1.4-0.9c-1.4,1.2-2.6,2.6-3.7,4.1c-3.2,5.1-5.9,10.4-9.5,15.2c-1.2,1.7-4.3,2-6.5,3c-0.6-2.3-2.4-4.9-1.7-6.7
	c2.4-6.6,5.6-13,8.5-19.5c2.4-3.8,4.9-7.7,7.3-11.5s5.8-6.7,10.5-5c5.4,2,3.8,6.8,3.2,10.9c-0.8,5.4-1.9,10.9-2.8,16.3l1.5,0.9
	c1.4-0.8,2.7-1.6,3.9-2.6c4-3.6,7.6-7.8,11.9-11c2.2-1.6,6.2-2.8,8.4-1.8c3.5,1.4,3.6,5.6,2,8.8c-3,6.1-6.5,12-9.8,18
	c-1.5,1.6-2.9,3.3-4.2,5.1C156.4,59.4,155.6,61,155.1,62.6L155.1,62.6z"/>
<path class="st4" d="M43.5,44c-0.7,0.6-1.4,1.1-2.1,1.7c-3.3,3-6.6,6.1-9.9,9.2c-1.2,0.4-2.8,0.6-3.6,1.4c-3.8,3.8-7.5,3.8-9.2-1.1
	c-4.7-13.4-8.8-27-13-40.6c-0.4-1-0.3-2.1,0.2-3.1c1.1-1.5,3-4,3.8-3.7c5,1.7,8.8-1.5,13-2.5c6.4-1.5,11.4,1,15,6.3
	c5.8,8.3,8.5,17.5,6.8,27.7c-0.1,1-0.2,2-0.2,3.1l0.4,0.1L43.5,44z M37.3,38.2c-1.5-9.4-3.7-17.8-9.1-25.1c-2.2-2.9-5.1-3.7-8.4-2.2
	s-2.6,3.9-1.9,6.7c2.8,10,5.3,20.1,8.1,30.2c1.1,3.9,4.1,4.8,6.4,1.6S35.7,42,37.3,38.2L37.3,38.2z"/>
<path class="st5" d="M173.3,77.4c-1.7,1.1-3.5,2-5.4,2.9c-2.9,1.1-5.3,0.9-5.2-3.5c-8.9-2.9-9.9-4.8-7.7-14.1l-0.1,0.1l10.8-4.2
	l9.6,6.5c1.4-1.8,3.4-3.9,4.7-6.3c0.8-1.5,1.1-4.2,0.3-5.2c-1.1-1.3-3.6-1.9-5.5-1.8s-3.2,1.9-5,2.6c-1.7,0.5-3.5,0.8-5.3,0.9h0.1
	c0.2-6.3,8-8.4,12.4-6.9c7,2.4,10.3,9,7.8,15.4c-0.8,2-1.2,4.2-1.8,6.3v0.1l-1.8-0.4c0,0.6,0.1,1.3,0.1,1.9L173.3,77.4z M165.5,74.4
	c2.3-2.1,4.3-4.3,6.2-6.7c0.4-0.5-1.4-3.3-2.7-4.3c-2.5-1.9-7,0.7-9,5C158.4,71.8,159.9,74.2,165.5,74.4L165.5,74.4z"/>
<path class="st6" d="M183.2,70.1V70c2.1-1.6,4.3-3,6.5-4.3c4.5-2.4,8-0.2,8.2,4.7c0.1,1.2,0.6,2.4,1.4,3.2c5.8,5.4,6,9.2,0.9,15.2
	c-1.1,1.4-2,3-2.8,4.6l0.1-0.1l-4.3,2.2l0.1-0.1c-1.3,0.2-2.6,0.4-3.9,0.5c-2.3,0.2-4.5,0.4-6.8,0.7c-0.3-0.8-0.6-1.6-0.9-2.4
	c4.4-3.1,9-6,13.2-9.3c2.6-2,6.7-4.5,3.9-8.4c-2.2-3.2-5.8-2-8.8,0.3c-3.5,2.7-7.1,5.1-10.7,7.6c-2.4,0.1-5.4,1.1-7,0
	c-3.5-2.3,0.2-4.8,1-7.1l8.2-5.9L183.2,70.1z"/>
<path class="st7" d="M77.7,27.5c-0.4,5.3-0.5,10.6-1.3,15.8c-0.3,1.7-2.2,3.2-3.4,4.8c-1.3-1.6-3.4-3-3.6-4.7
	c-0.7-4.1-0.5-8.4-0.7-12.6c0-8.1,0-16.2,0-24.3c0-3-0.3-6.5,4.2-6.4s5.6,3.2,5.5,6.9C78.3,13.8,78,20.6,77.7,27.5z"/>
<path class="st8" d="M208.9,117.3c-4.2,4.9-9.5,4.8-14.3,0.5c-3.6-3.2-1.5-5.7,0.9-8.6c5.5-6.7,12.6-9.9,20.9-11.1
	c4.3-0.6,7.6,0.6,9.2,5.1c1.5,4.2-0.4,7.1-3.7,9.5c-3.8,2.7-7,0.8-9.9-1.6c-1.2-1-2-2.4-3.2-4c-2.8,1.3-5.6,2.8-8.2,4.5
	c-1.2,0.8-1.7,2.7-2.5,4.1c1.6,0.8,3.1,2,4.7,2.4S206.1,117.7,208.9,117.3z M214.6,104.4c-0.2,0.6-0.3,1.3-0.5,1.9
	c1.3,2,1.7,5.6,5.6,3.9c1.5-0.7,2.1-3.2,3.1-4.8L214.6,104.4z"/>
<path class="st9" d="M66.9,31c-1,2.4-1.5,5-2.9,7.1c-2.9,4.3-8.2,4.6-13.1,1c-1.1-4.8-2.8-9.6-3-14.5c-0.4-3.8,2.4-7.3,6.2-7.7
	c0.2,0,0.5,0,0.7,0c4.6-0.3,8.8,1.1,10.5,5.9C66.2,25.4,66.4,28.2,66.9,31z M54.3,20.9c-3.8,4.9-2.8,13.9,2,17.2
	C60.3,31.6,59.4,24,54.3,20.9L54.3,20.9z"/>
<path class="st5" d="M88.2,25.9v13.2l2,0.4c0.9-1.7,1.9-3.3,3-4.8c0.5-0.7,1.6-0.9,2.4-1.4c0.3,0.9,1.2,2.2,0.9,2.6
	c-1.9,2.3-3.8,5.4-6.3,6.2c-1.7,0.5-5.3-1.9-6.4-3.9c-1.9-3.4-2.6-7.5-3.8-11.3c0.7-1.6,1.3-3.1,2-4.7c1.2-2.7,2-5.7,3.9-7.8
	C90,9.8,96.3,11.2,98,17.3c0.8,2.6,0.5,5.5,0.8,8.3c-1.5,1.9-3,4.1-4.7,0.1c0.5-2.2,1.3-4.4,1.3-6.6c0-1.3-1.3-2.6-2-3.9
	c-1.1,0.9-2.8,1.5-3.2,2.7C89.3,20.5,88.7,23.2,88.2,25.9z"/>
<path class="st6" d="M197.4,93.4c3-1.5,5.8-3.4,9-4.5c1.5-0.5,4.5,0,5,1c0.7,1.3,0.2,4.5-0.9,5.1c-6,3.4-12.3,6.5-18.6,9.3
	c-1,0.4-2.6-0.5-3.9-0.9c0.3-1.4,0.8-2.7,1.5-4c1.2-1.5,2.5-2.9,3.9-4.1l-0.1,0.1l4.3-2.1L197.4,93.4z"/>
<path class="st10" d="M110.6,26.6c-1.8,5.5-3.3,11.1-5.5,16.4c-0.6,1.6-3,2.5-4.6,3.7c-0.7-1.8-2.3-3.8-2.1-5.4
	c0.8-5.2,2.4-10.4,3.6-15.6c1.3-1.9,0.8-5.4,4.8-4.7C110.4,21.6,110.7,23.8,110.6,26.6z"/>
<path class="st9" d="M108.8,18.8l-4.7-5.2c1.7-0.9,3.5-2.9,4.9-2.6c1.7,0.4,3,2.6,4.5,4.1L108.8,18.8z"/>
<path class="st8" d="M217.6,79.8c2.1,3.3,3.7,5.1,4.6,7.3c0.3,0.7-1.4,2.2-2.2,3.4c-1.9-1.7-3.6-3.6-5.2-5.6
	C214.4,84.3,216,82.6,217.6,79.8z"/>
<path class="st0" d="M165.8,58.5L155,62.7c0.6-1.6,1.4-3.2,2.2-4.7c1.3-1.8,2.7-3.5,4.2-5.1l3.4,2.2h-0.2
	C165,56.2,165.4,57.3,165.8,58.5z"/>
<path class="st1" d="M47.6,82.2l-8.1-0.5c2.9-4.7,10.8-0.6,9.6-8.7c-2.4-3.5-2-5.9,3.2-10.3c3,2.8,5.5,5.4,3.2,10.3
	c-0.5,1.1,1.6,4.1,3.2,5.5c1,1,3.2,0.8,4.8,1.1l0.1,1.7l-7.1,1v9C49.7,95.1,48.7,94.1,47.6,82.2z"/>
<path class="st11" d="M28.7,83.6c0-0.2,0-0.4,0-0.6c0.6-0.7,1.9-1.5,1.8-2.2c-0.4-3.6,2.6-6.9,0.1-10.9c-0.8-1.3,2.1-4.9,3.7-8.2
	c3.4,4.3,7.4,7,3.4,11.8c-0.2,0.3,0.1,1.1,0.2,1.6c0.4,3.8,1.1,7.6,1.1,11.4c0.2,7.2-0.2,7.4-7.2,6.2C30.8,89.4,29.7,86.5,28.7,83.6
	z"/>
<path class="st12" d="M71.3,73.3c1,6.2,2,12.4,3,18.4c-8.3,2.6-9.6,1.8-9.3-5.3c0.2-4.4,1.3-8.8,2-13.2L71.3,73.3z"/>
<path class="st10" d="M71.3,73.3L67,73.2c-5.4-4.4-0.3-7.1,1.4-10.5C74,66.2,74.9,69.6,71.3,73.3z"/>
<path class="st13" d="M43.5,44l1.1-1.6L43.5,44z"/>
<path class="st14" d="M15.1,119.8c27.6,11.8,64.9,9.9,77.6-4.1c8.8,3.1,10,5.3,8.7,18.5c-7.8-2.3-12.6,2.2-17.5,7.4
	c-3.1,3.3-7.8,3.5-11.8,1.5c-8.6-4.3-16.9-3.8-25.2,0.6c-4.6,2.5-9.4,2.1-13.2-1.7c-3.9-4-9.4-6-14.9-5.4L15.1,119.8z"/>
<path class="st14" d="M21.1,140.1c2.9,1,6.3,1.3,8.5,3.2c6.4,5.5,13,6.6,20.4,2.6c6.4-3.4,12.6-3.4,19.3-0.4
	c8.3,3.7,13.3,2.5,19.3-4.1c3.5-3.9,7.5-5.7,12.7-3.3c2,11.6-0.4,16.7-11.9,20.6c-16.4,5.6-33.9,7.1-51.1,4.6L21.1,140.1z"/>
<path class="st14" d="M15.1,119.8l-0.9-1.2L15.1,119.8z"/>
<path class="st15" d="M139,149.8l-1.8-4.6c-4.1,3.2-4.3,4.9-1.1,13.4c-2.1-1.1-5.5-1.7-6-3.3c-1.7-5.1,0.9-9.1,5.9-11.8
	c-6.2-1.7-8.9,1.8-11.2,6l-1.6-0.1c0-2.3-1-5.5,0.2-6.7c3.8-3.8,8.6-4.1,14-0.1c-2.2-6.9-6.9-7.3-12.3-8.4c2-1.2,4.9-4,5.9-3.5
	c3.1,1.7,5.6,4.6,8.1,7.3c0.7,0.7,0.7,2.1,1.1,3.2v0.8l1.1,2c0,0.4,0,0.7,0,1.1l-2.1,1.1L139,149.8z"/>
<path class="st16" d="M139,149.8l0.1-3.5h2.1l-0.1,0c0.9,4.2,2.2,4.9,8.9,5.5c0.2,4,0.5,7.6,0.7,11.3l-1.6,0.2L139,149.8z"/>
<path class="st16" d="M140.2,142.1v-0.8c4.6-4.3,1.8-8.3-0.6-12.7c3.4,0.5,7.1,0,7.5,4.8S145,141.4,140.2,142.1z"/>
<path class="st16" d="M141.2,145.2c0-0.4,0-0.7,0-1.1c5.6,0.8,8.5-2.9,12.1-6.9c0,2.4,1,5.8-0.2,6.9c-1.9,1.8-5.2,2.3-8,2.9
	c-1.2,0.3-2.6-0.5-4-0.8l0.1,0L141.2,145.2z"/>
<path class="st15" d="M170.6,136.7c-1.7,2.4-3.4,4.9-5.1,7.4c-1-0.8-2-1.6-3-2.4l5.7-6.9L170.6,136.7z"/>
<path class="st0" d="M171.3,144.1l-1.5,1.2L171.3,144.1z"/>
<path class="st14" d="M165.5,74.4c-5.6-0.1-7.1-2.6-5.5-6c2.1-4.3,6.5-6.9,9-5c1.3,1,3.1,3.8,2.7,4.3
	C169.8,70.1,167.8,72.3,165.5,74.4z"/>
<path class="st13" d="M197.5,93.4l-4.3,2.2L197.5,93.4z"/>
<path class="st2" d="M141.2,145.2v1.1h-2.1L141.2,145.2z"/>
</svg>
